<svg id="Layer_1" data-name="Layer 1" xmlns="http://www.w3.org/2000/svg" viewBox="0 0 1036.33 539"><defs><style>.cls-1{fill:#ffb1b1;}.cls-2{fill:#bfffa3;}.cls-3{fill:#bfbfbf;}.cls-10,.cls-4,.cls-5,.cls-6,.cls-7,.cls-8,.cls-9{fill:none;}.cls-4,.cls-5,.cls-9{stroke:#000;}.cls-10,.cls-4,.cls-5,.cls-6,.cls-7,.cls-9{stroke-miterlimit:10;}.cls-5{stroke-dasharray:9.96 9.96;}.cls-6{stroke:#666;}.cls-6,.cls-7,.cls-8{stroke-width:3px;}.cls-7{stroke:#39b54a;}.cls-8{stroke:red;stroke-linejoin:round;}.cls-9{stroke-dasharray:30.44 30.44;}.cls-10{stroke:#4d4d4d;stroke-width:2px;}</style></defs><title>graph</title><path class="cls-1" d="M105.49,605.53s106-78,264-113v53s115-52,221-68v43s90-43,178.58-53c.42,0,.42,51,.42,51,64.23-26.89,124.22-46.94,174.28-51l-.28,44c60.89-24,109.33-37.54,149.26-44l-.26,42s21-16,48-21v-21H105.5Z" transform="translate(-104.5 -116.5)"/><path class="cls-2" d="M105.49,272.06s120,17.44,233,20.44,280-5,400-21,402-79,402-79v275H105.5" transform="translate(-104.5 -116.5)"/><path class="cls-3" d="M105.5,440.63s181,20.87,298,19.87,146-5,359-36,378-65,378-65v108H105.5" transform="translate(-104.5 -116.5)"/><line class="cls-4" x1="701" x2="701" y2="5"/><line class="cls-5" x1="701" y1="14.96" x2="701" y2="528.02"/><line class="cls-4" x1="701" y1="533" x2="701" y2="538"/><path class="cls-6" d="M105.5,440.63s181,20.87,298,19.87,146-5,359-36,378-65,378-65" transform="translate(-104.5 -116.5)"/><path class="cls-7" d="M1140.5,192.5s-282,63-402,79-287,24-400,21-233-20.44-233-20.44" transform="translate(-104.5 -116.5)"/><path class="cls-8" d="M105.49,605.53s106-78,264-113v53s115-52,221-68v43s90-43,178.58-53c.42,0,.42,51,.42,51,64.23-26.89,124.22-46.94,174.28-51l-.28,44c60.89-24,109.33-37.54,149.26-44l-.26,42s21-16,48-21" transform="translate(-104.5 -116.5)"/><line class="cls-4" x1="1" y1="351" x2="16" y2="350.99"/><line class="cls-9" x1="46.44" y1="350.98" x2="1005.28" y2="350.51"/><line class="cls-4" x1="1020.5" y1="350.51" x2="1035.5" y2="350.5"/><polyline class="cls-10" points="1 0 1 538 1036 538"/></svg>